<?xml version="1.0" encoding="UTF-8"?>
<svg xmlns="http://www.w3.org/2000/svg" viewBox="0 0 240 27">
    <g>
        <path fill="black" d="M0 2.83656C0 2.04863 0.271111 1.37888 0.813332 0.827329C1.35555 0.275776 2.01396 0 2.78857 0H43.978C44.7526 0 45.411 0.275776 45.9532 0.827329C46.4955 1.37888 46.7666 2.04863 46.7666 2.83656C46.7666 3.6245 46.4955 4.29424 45.9532 4.8458C45.411 5.39735 44.7526 5.67313 43.978 5.67313H2.78857C2.01396 5.67313 1.35555 5.39735 0.813332 4.8458C0.271111 4.29424 0 3.6245 0 2.83656ZM7.0876 25.7655C6.23554 25.7655 5.38348 25.5882 4.53142 25.2336C3.67936 24.8396 2.92412 24.3078 2.26571 23.638C1.6073 22.9683 1.06508 22.1607 0.639046 21.2151C0.213015 20.2696 0 19.2059 0 18.024V12.7054C0 11.6417 0.290476 10.9326 0.871427 10.578C1.49111 10.2235 2.43999 10.0462 3.71809 10.0462H42.6999C43.4745 10.0462 44.1329 10.3219 44.6752 10.8735C45.2174 11.4251 45.4885 12.0948 45.4885 12.8827C45.4885 13.6707 45.2174 14.3404 44.6752 14.892C44.1329 15.4435 43.4745 15.7193 42.6999 15.7193H5.57713V18.615C5.57713 19.0089 5.73205 19.3635 6.04189 19.6787C6.39046 19.9544 6.83586 20.0923 7.37808 20.0923H43.978C44.7526 20.0923 45.411 20.3681 45.9532 20.9197C46.4955 21.4712 46.7666 22.141 46.7666 22.9289C46.7666 23.7168 46.4955 24.3866 45.9532 24.9381C45.411 25.4897 44.7526 25.7655 43.978 25.7655H7.0876Z"/>
        <path fill="black" d="M89.25 1.06371C89.8309 0.354571 90.5474 0 91.3995 0C92.1741 0 92.8325 0.275776 93.3747 0.827329C93.917 1.37888 94.1881 2.04863 94.1881 2.83656C94.1881 3.54571 93.9944 4.11696 93.6071 4.55032L93.549 4.60942L79.49 23.8744C78.7929 24.7805 77.9021 25.5291 76.8176 26.12C75.7719 26.6716 74.6294 26.9474 73.39 26.9474C72.2281 26.9474 71.1243 26.6913 70.0786 26.1791C69.0716 25.667 68.2196 24.9578 67.5224 24.0517L53.4053 4.8458C53.1729 4.57002 52.9793 4.27455 52.8244 3.95937C52.6694 3.6048 52.592 3.23053 52.592 2.83656C52.592 2.04863 52.8631 1.37888 53.4053 0.827329C53.9475 0.275776 54.6059 0 55.3805 0C56.3101 0 57.0459 0.374269 57.5881 1.12281L71.1243 19.5014C71.3954 19.8166 71.7246 20.1711 72.1119 20.5651C72.538 20.9197 72.964 21.097 73.39 21.097C73.8161 21.097 74.2227 20.9197 74.61 20.5651C75.036 20.1711 75.3653 19.8166 75.5976 19.5014L89.25 1.06371Z"/>
        <path fill="black" d="M100.021 22.9289C100.021 21.9046 100.37 21.0379 101.067 20.3287C101.764 19.6196 102.616 19.265 103.623 19.265C104.63 19.265 105.482 19.6196 106.179 20.3287C106.876 21.0379 107.225 21.9046 107.225 22.9289C107.225 23.9532 106.876 24.8199 106.179 25.5291C105.482 26.2382 104.63 26.5928 103.623 26.5928C102.616 26.5928 101.764 26.2382 101.067 25.5291C100.37 24.8199 100.021 23.9532 100.021 22.9289Z"/>
        <path fill="black" d="M113.013 2.83656C113.013 2.04863 113.284 1.37888 113.826 0.827329C114.369 0.275776 115.027 0 115.802 0C116.576 0 117.235 0.275776 117.777 0.827329C118.319 1.37888 118.59 2.04863 118.59 2.83656V12.8827C118.59 13.5919 118.668 14.3798 118.823 15.2465C119.016 16.0739 119.346 16.8421 119.81 17.5512C120.314 18.2604 120.972 18.871 121.786 19.3832C122.638 19.856 123.741 20.0923 125.097 20.0923H138.575C137.955 18.9892 137.491 17.827 137.181 16.6057C136.871 15.345 136.716 14.104 136.716 12.8827V2.83656C136.716 2.04863 136.987 1.37888 137.529 0.827329C138.072 0.275776 138.73 0 139.505 0C140.279 0 140.938 0.275776 141.48 0.827329C142.022 1.37888 142.293 2.04863 142.293 2.83656V12.8827C142.293 13.5919 142.371 14.3601 142.525 15.1874C142.719 16.0148 143.029 16.8027 143.455 17.5512C143.92 18.2604 144.539 18.871 145.314 19.3832C146.127 19.856 147.154 20.0923 148.393 20.0923H153.912C155.229 20.0923 156.313 19.856 157.165 19.3832C158.018 18.871 158.676 18.2604 159.141 17.5512C159.644 16.8421 159.973 16.0739 160.128 15.2465C160.322 14.3798 160.419 13.5919 160.419 12.8827V2.83656C160.419 2.04863 160.69 1.37888 161.232 0.827329C161.774 0.275776 162.433 0 163.207 0C163.982 0 164.64 0.275776 165.183 0.827329C165.725 1.37888 165.996 2.04863 165.996 2.83656V12.8827C165.996 14.3798 165.744 15.8966 165.241 17.4331C164.776 18.9301 164.079 20.309 163.149 21.5697C162.22 22.791 161.097 23.7956 159.78 24.5836C158.463 25.3715 156.972 25.7655 155.306 25.7655H123.122C121.534 25.7655 120.12 25.3715 118.881 24.5836C117.641 23.7956 116.576 22.791 115.686 21.5697C114.833 20.309 114.175 18.9104 113.71 17.374C113.246 15.8375 113.013 14.3404 113.013 12.8827V2.83656Z" />
        <path fill="black" d="M177.366 22.9289C177.366 23.7168 177.095 24.3866 176.553 24.9381C176.011 25.4897 175.352 25.7655 174.578 25.7655C173.803 25.7655 173.145 25.4897 172.602 24.9381C172.06 24.3866 171.789 23.7168 171.789 22.9289V2.83656C171.789 2.04863 172.06 1.37888 172.602 0.827329C173.145 0.275776 173.803 0 174.578 0C175.352 0 176.011 0.275776 176.553 0.827329C177.095 1.37888 177.366 2.04863 177.366 2.83656V22.9289Z" />
        <path fill="black" d="M188.712 10.0462H202.132C204.145 10.0462 206.121 9.79009 208.057 9.27793C209.994 8.72638 211.872 8.01724 213.692 7.15051C215.551 6.28378 217.314 5.29886 218.979 4.19575C220.683 3.09264 222.31 1.96984 223.859 0.827329C224.518 0.275776 225.176 0 225.834 0C226.609 0 227.267 0.275776 227.81 0.827329C228.352 1.37888 228.623 2.04863 228.623 2.83656C228.623 3.38812 228.468 3.88058 228.158 4.31394C227.848 4.70791 227.48 5.06248 227.054 5.37765C226.047 6.16559 225.079 6.91413 224.15 7.62327C223.22 8.29301 222.291 8.92336 221.361 9.51431C220.431 10.1053 219.463 10.6765 218.456 11.2281C217.488 11.7796 216.442 12.3312 215.319 12.8827C216.442 13.4343 217.488 13.9858 218.456 14.5374C219.463 15.089 220.431 15.6602 221.361 16.2512C222.291 16.8421 223.22 17.4922 224.15 18.2013C225.079 18.871 226.047 19.5999 227.054 20.3878C227.48 20.703 227.848 21.0773 228.158 21.5106C228.468 21.9046 228.623 22.3773 228.623 22.9289C228.623 23.7168 228.352 24.3866 227.81 24.9381C227.267 25.4897 226.609 25.7655 225.834 25.7655C225.176 25.7655 224.518 25.4897 223.859 24.9381C222.271 23.7562 220.625 22.6137 218.921 21.5106C217.256 20.4075 215.513 19.4226 213.692 18.5559C211.872 17.6891 209.994 16.9997 208.057 16.4875C206.121 15.9754 204.145 15.7193 202.132 15.7193H188.712V22.9289C188.712 23.7168 188.44 24.3866 187.898 24.9381C187.356 25.4897 186.717 25.7655 185.981 25.7655C185.206 25.7655 184.548 25.4897 184.006 24.9381C183.464 24.3866 183.193 23.7168 183.193 22.9289V2.83656C183.193 2.04863 183.464 1.37888 184.006 0.827329C184.548 0.275776 185.187 0 185.923 0C186.698 0 187.356 0.275776 187.898 0.827329C188.44 1.37888 188.712 2.04863 188.712 2.83656V10.0462Z"/>
        <path fill="black" d="M240 22.9289C240 23.7168 239.729 24.3866 239.187 24.9381C238.644 25.4897 237.986 25.7655 237.211 25.7655C236.437 25.7655 235.778 25.4897 235.236 24.9381C234.694 24.3866 234.423 23.7168 234.423 22.9289V2.83656C234.423 2.04863 234.694 1.37888 235.236 0.827329C235.778 0.275776 236.437 0 237.211 0C237.986 0 238.644 0.275776 239.187 0.827329C239.729 1.37888 240 2.04863 240 2.83656V22.9289Z"/>
    </g>
</svg>
